<mxfile host="65bd71144e">
    <diagram id="U223zo-wFan_LR6l8sCP" name="第 1 页">
        <mxGraphModel dx="479" dy="322" grid="1" gridSize="11" guides="1" tooltips="1" connect="1" arrows="1" fold="1" page="1" pageScale="1" pageWidth="827" pageHeight="1169" math="0" shadow="0">
            <root>
                <mxCell id="0"/>
                <mxCell id="1" parent="0"/>
                <mxCell id="2" value="开始" style="rounded=1;whiteSpace=wrap;html=1;fontFamily=Garamond;" vertex="1" parent="1">
                    <mxGeometry x="154" y="517" width="120" height="60" as="geometry"/>
                </mxCell>
                <mxCell id="3" value="" style="endArrow=classic;html=1;fontFamily=Garamond;" edge="1" parent="1">
                    <mxGeometry width="50" height="50" relative="1" as="geometry">
                        <mxPoint x="209" y="583" as="sourcePoint"/>
                        <mxPoint x="209" y="627" as="targetPoint"/>
                        <Array as="points">
                            <mxPoint x="209" y="583"/>
                        </Array>
                    </mxGeometry>
                </mxCell>
                <mxCell id="4" value="&amp;nbsp;int year&amp;nbsp;" style="rounded=0;whiteSpace=wrap;html=1;fontFamily=Garamond;" vertex="1" parent="1">
                    <mxGeometry x="143" y="726" width="120" height="60" as="geometry"/>
                </mxCell>
                <mxCell id="5" value="" style="endArrow=classic;html=1;fontFamily=Garamond;exitX=0.5;exitY=1;exitDx=0;exitDy=0;entryX=0.5;entryY=0;entryDx=0;entryDy=0;" edge="1" parent="1" source="4" target="6">
                    <mxGeometry width="50" height="50" relative="1" as="geometry">
                        <mxPoint x="198" y="754" as="sourcePoint"/>
                        <mxPoint x="214" y="759" as="targetPoint"/>
                    </mxGeometry>
                </mxCell>
                <mxCell id="6" value="year %400 == 0&lt;br&gt;||year % 4 ==0&lt;br&gt;&amp;amp;&amp;amp;year % 100 ==0" style="rhombus;whiteSpace=wrap;html=1;fontFamily=Garamond;" vertex="1" parent="1">
                    <mxGeometry x="115" y="836" width="176" height="80" as="geometry"/>
                </mxCell>
                <mxCell id="7" value="输入年份" style="shape=parallelogram;perimeter=parallelogramPerimeter;whiteSpace=wrap;html=1;fixedSize=1;fontFamily=Garamond;" vertex="1" parent="1">
                    <mxGeometry x="143" y="622" width="120" height="60" as="geometry"/>
                </mxCell>
                <mxCell id="8" value="" style="endArrow=classic;html=1;fontFamily=Garamond;exitX=0.5;exitY=1;exitDx=0;exitDy=0;" edge="1" parent="1" source="7">
                    <mxGeometry width="50" height="50" relative="1" as="geometry">
                        <mxPoint x="176" y="732" as="sourcePoint"/>
                        <mxPoint x="203" y="737" as="targetPoint"/>
                    </mxGeometry>
                </mxCell>
                <mxCell id="9" value="y" style="endArrow=classic;html=1;fontFamily=Garamond;exitX=0;exitY=0.5;exitDx=0;exitDy=0;entryX=0.5;entryY=0;entryDx=0;entryDy=0;" edge="1" parent="1" source="6" target="11">
                    <mxGeometry x="-0.1943" width="50" height="50" relative="1" as="geometry">
                        <mxPoint x="66" y="880" as="sourcePoint"/>
                        <mxPoint x="209" y="1056" as="targetPoint"/>
                        <Array as="points">
                            <mxPoint x="66" y="876"/>
                            <mxPoint x="66" y="924"/>
                            <mxPoint x="66" y="1056"/>
                        </Array>
                        <mxPoint as="offset"/>
                    </mxGeometry>
                </mxCell>
                <mxCell id="10" value="n" style="endArrow=classic;html=1;fontFamily=Garamond;exitX=1;exitY=0.5;exitDx=0;exitDy=0;entryX=0.5;entryY=0;entryDx=0;entryDy=0;" edge="1" parent="1" source="6" target="12">
                    <mxGeometry x="-0.1576" width="50" height="50" relative="1" as="geometry">
                        <mxPoint x="319" y="930" as="sourcePoint"/>
                        <mxPoint x="231" y="1056" as="targetPoint"/>
                        <Array as="points">
                            <mxPoint x="363" y="880"/>
                            <mxPoint x="363" y="1056"/>
                        </Array>
                        <mxPoint as="offset"/>
                    </mxGeometry>
                </mxCell>
                <mxCell id="11" value="is a leap year" style="shape=parallelogram;perimeter=parallelogramPerimeter;whiteSpace=wrap;html=1;fixedSize=1;fontFamily=Garamond;" vertex="1" parent="1">
                    <mxGeometry x="77" y="1056" width="120" height="60" as="geometry"/>
                </mxCell>
                <mxCell id="12" value="not is leap year" style="shape=parallelogram;perimeter=parallelogramPerimeter;whiteSpace=wrap;html=1;fixedSize=1;fontFamily=Garamond;" vertex="1" parent="1">
                    <mxGeometry x="253" y="1056" width="120" height="60" as="geometry"/>
                </mxCell>
                <mxCell id="13" value="" style="endArrow=classic;html=1;fontFamily=Garamond;exitX=1;exitY=0.5;exitDx=0;exitDy=0;" edge="1" parent="1" source="11">
                    <mxGeometry width="50" height="50" relative="1" as="geometry">
                        <mxPoint x="198" y="1106" as="sourcePoint"/>
                        <mxPoint x="220" y="1166" as="targetPoint"/>
                    </mxGeometry>
                </mxCell>
                <mxCell id="14" value="" style="endArrow=classic;html=1;fontFamily=Garamond;exitX=0;exitY=0.5;exitDx=0;exitDy=0;" edge="1" parent="1" source="12">
                    <mxGeometry width="50" height="50" relative="1" as="geometry">
                        <mxPoint x="264" y="1128" as="sourcePoint"/>
                        <mxPoint x="220" y="1166" as="targetPoint"/>
                    </mxGeometry>
                </mxCell>
                <mxCell id="15" value="end" style="rounded=1;whiteSpace=wrap;html=1;fontFamily=Garamond;" vertex="1" parent="1">
                    <mxGeometry x="154" y="1169" width="120" height="60" as="geometry"/>
                </mxCell>
            </root>
        </mxGraphModel>
    </diagram>
</mxfile>